<?xml version="1.0" standalone="no"?>
<!DOCTYPE svg PUBLIC "-//W3C//DTD SVG 20010904//EN"
 "http://www.w3.org/TR/2001/REC-SVG-20010904/DTD/svg10.dtd">
<svg version="1.0" xmlns="http://www.w3.org/2000/svg"
 width="700.000000pt" height="700.000000pt" viewBox="0 0 700.000000 700.000000"
 preserveAspectRatio="xMidYMid meet">
<metadata>
Created by potrace 1.11, written by Peter Selinger 2001-2013
</metadata>
<g transform="translate(0.000000,700.000000) scale(0.100000,-0.100000)"
fill="#000000" stroke="none">
<path d="M1744 5256 c-959 -960 -1744 -1750 -1744 -1756 0 -15 3485 -3500
3500 -3500 15 0 3500 3485 3500 3500 0 15 -3485 3500 -3500 3500 -6 0 -796
-785 -1756 -1744z m1914 689 c101 -15 208 -65 317 -146 126 -94 84 -54 802
-771 l653 -651 -262 -263 c-145 -145 -264 -262 -265 -261 -1 1 -255 255 -565
563 -351 351 -584 575 -618 597 -151 95 -327 86 -470 -22 -36 -27 -132 -117
-215 -200 l-150 -151 702 -703 702 -702 -262 -262 -262 -263 -702 702 -703
703 -307 -307 -308 -308 263 -263 262 -262 -260 -260 c-143 -143 -262 -261
-264 -263 -2 -1 -239 234 -528 523 l-525 525 1016 1016 c559 559 1057 1055
1106 1101 229 215 416 316 620 336 42 4 178 -1 223 -8z m2386 -2181 c141 -141
256 -259 256 -264 0 -7 -1886 -1896 -2106 -2110 -276 -267 -417 -339 -669
-344 -109 -2 -232 13 -290 35 -68 27 -134 60 -145 74 -7 8 -17 15 -23 15 -17
0 -146 108 -256 215 -236 228 -706 706 -703 715 3 13 512 523 517 518 2 -2
136 -134 297 -294 161 -160 316 -306 343 -326 84 -58 147 -77 252 -74 80 2
100 7 160 36 64 30 135 99 1083 1046 558 558 1018 1014 1021 1014 3 0 121
-115 263 -256z"/>
</g>
</svg>
